<mxfile host="app.diagrams.net" agent="Mozilla/5.0 (Windows NT 10.0; Win64; x64) AppleWebKit/537.36 (KHTML, like Gecko) Chrome/132.0.0.0 Safari/537.36" version="26.0.11">
  <diagram name="Page-1" id="FnWzYHux1_spk_cezTuA">
    <mxGraphModel dx="1891" dy="1707" grid="1" gridSize="10" guides="1" tooltips="1" connect="1" arrows="1" fold="1" page="1" pageScale="1" pageWidth="827" pageHeight="1169" math="0" shadow="0">
      <root>
        <mxCell id="0" />
        <mxCell id="1" parent="0" />
        <mxCell id="0U5PHvUe9skKoDq-eCE6-14" style="edgeStyle=orthogonalEdgeStyle;rounded=0;orthogonalLoop=1;jettySize=auto;html=1;exitX=0.5;exitY=1;exitDx=0;exitDy=0;entryX=0.5;entryY=0;entryDx=0;entryDy=0;fontSize=13;" edge="1" parent="1" source="0U5PHvUe9skKoDq-eCE6-1" target="0U5PHvUe9skKoDq-eCE6-2">
          <mxGeometry relative="1" as="geometry" />
        </mxCell>
        <mxCell id="0U5PHvUe9skKoDq-eCE6-1" value="&lt;div style=&quot;color: rgb(56, 58, 66); background-color: rgb(245, 245, 245); font-family: Consolas, &amp;quot;Courier New&amp;quot;, monospace; font-weight: normal; line-height: 19px; white-space: pre;&quot;&gt;&lt;div&gt;&lt;span style=&quot;color: #4078f2;&quot;&gt;media_device_init&lt;/span&gt;&lt;/div&gt;&lt;/div&gt;" style="text;whiteSpace=wrap;html=1;fontSize=13;" vertex="1" parent="1">
          <mxGeometry x="270" y="50" width="140" height="30" as="geometry" />
        </mxCell>
        <mxCell id="0U5PHvUe9skKoDq-eCE6-15" style="edgeStyle=orthogonalEdgeStyle;rounded=0;orthogonalLoop=1;jettySize=auto;html=1;exitX=0.5;exitY=1;exitDx=0;exitDy=0;entryX=0.5;entryY=0;entryDx=0;entryDy=0;fontSize=13;" edge="1" parent="1" source="0U5PHvUe9skKoDq-eCE6-2" target="0U5PHvUe9skKoDq-eCE6-3">
          <mxGeometry relative="1" as="geometry" />
        </mxCell>
        <mxCell id="0U5PHvUe9skKoDq-eCE6-2" value="&lt;div style=&quot;color: rgb(56, 58, 66); background-color: rgb(245, 245, 245); font-family: Consolas, &amp;quot;Courier New&amp;quot;, monospace; font-weight: normal; line-height: 19px; white-space: pre;&quot;&gt;&lt;div&gt;&lt;span style=&quot;color: #4078f2;&quot;&gt;v4l2_device_register&lt;/span&gt;&lt;/div&gt;&lt;/div&gt;" style="text;whiteSpace=wrap;html=1;fontSize=13;" vertex="1" parent="1">
          <mxGeometry x="260" y="110" width="160" height="30" as="geometry" />
        </mxCell>
        <mxCell id="0U5PHvUe9skKoDq-eCE6-16" style="edgeStyle=orthogonalEdgeStyle;rounded=0;orthogonalLoop=1;jettySize=auto;html=1;exitX=0.5;exitY=1;exitDx=0;exitDy=0;entryX=0.5;entryY=0;entryDx=0;entryDy=0;fontSize=13;" edge="1" parent="1" source="0U5PHvUe9skKoDq-eCE6-3" target="0U5PHvUe9skKoDq-eCE6-4">
          <mxGeometry relative="1" as="geometry" />
        </mxCell>
        <mxCell id="0U5PHvUe9skKoDq-eCE6-3" value="&lt;div style=&quot;color: rgb(56, 58, 66); background-color: rgb(245, 245, 245); font-family: Consolas, &amp;quot;Courier New&amp;quot;, monospace; font-weight: normal; line-height: 19px; white-space: pre;&quot;&gt;&lt;span style=&quot;color: rgb(64, 120, 242);&quot;&gt;media_device_register&lt;/span&gt;&lt;/div&gt;" style="text;whiteSpace=wrap;html=1;fontSize=13;" vertex="1" parent="1">
          <mxGeometry x="255" y="180" width="170" height="30" as="geometry" />
        </mxCell>
        <mxCell id="0U5PHvUe9skKoDq-eCE6-18" style="edgeStyle=orthogonalEdgeStyle;rounded=0;orthogonalLoop=1;jettySize=auto;html=1;exitX=1;exitY=0.5;exitDx=0;exitDy=0;entryX=0;entryY=0.5;entryDx=0;entryDy=0;fontSize=13;" edge="1" parent="1" source="0U5PHvUe9skKoDq-eCE6-4" target="0U5PHvUe9skKoDq-eCE6-5">
          <mxGeometry relative="1" as="geometry" />
        </mxCell>
        <mxCell id="0U5PHvUe9skKoDq-eCE6-19" style="edgeStyle=orthogonalEdgeStyle;rounded=0;orthogonalLoop=1;jettySize=auto;html=1;exitX=1;exitY=0.5;exitDx=0;exitDy=0;entryX=0;entryY=0.5;entryDx=0;entryDy=0;fontSize=13;" edge="1" parent="1" source="0U5PHvUe9skKoDq-eCE6-4" target="0U5PHvUe9skKoDq-eCE6-6">
          <mxGeometry relative="1" as="geometry" />
        </mxCell>
        <mxCell id="0U5PHvUe9skKoDq-eCE6-20" style="edgeStyle=orthogonalEdgeStyle;rounded=0;orthogonalLoop=1;jettySize=auto;html=1;exitX=1;exitY=0.5;exitDx=0;exitDy=0;entryX=0;entryY=0.5;entryDx=0;entryDy=0;fontSize=13;" edge="1" parent="1" source="0U5PHvUe9skKoDq-eCE6-4" target="0U5PHvUe9skKoDq-eCE6-7">
          <mxGeometry relative="1" as="geometry" />
        </mxCell>
        <mxCell id="0U5PHvUe9skKoDq-eCE6-21" style="edgeStyle=orthogonalEdgeStyle;rounded=0;orthogonalLoop=1;jettySize=auto;html=1;exitX=1;exitY=0.5;exitDx=0;exitDy=0;entryX=0;entryY=0.5;entryDx=0;entryDy=0;fontSize=13;" edge="1" parent="1" source="0U5PHvUe9skKoDq-eCE6-4" target="0U5PHvUe9skKoDq-eCE6-8">
          <mxGeometry relative="1" as="geometry" />
        </mxCell>
        <mxCell id="0U5PHvUe9skKoDq-eCE6-22" style="edgeStyle=orthogonalEdgeStyle;rounded=0;orthogonalLoop=1;jettySize=auto;html=1;exitX=1;exitY=0.5;exitDx=0;exitDy=0;entryX=0;entryY=0.5;entryDx=0;entryDy=0;fontSize=13;" edge="1" parent="1" source="0U5PHvUe9skKoDq-eCE6-4" target="0U5PHvUe9skKoDq-eCE6-9">
          <mxGeometry relative="1" as="geometry" />
        </mxCell>
        <mxCell id="0U5PHvUe9skKoDq-eCE6-23" style="edgeStyle=orthogonalEdgeStyle;rounded=0;orthogonalLoop=1;jettySize=auto;html=1;exitX=1;exitY=0.5;exitDx=0;exitDy=0;entryX=0;entryY=0.5;entryDx=0;entryDy=0;fontSize=13;" edge="1" parent="1" source="0U5PHvUe9skKoDq-eCE6-4" target="0U5PHvUe9skKoDq-eCE6-11">
          <mxGeometry relative="1" as="geometry" />
        </mxCell>
        <mxCell id="0U5PHvUe9skKoDq-eCE6-64" style="edgeStyle=orthogonalEdgeStyle;rounded=0;orthogonalLoop=1;jettySize=auto;html=1;exitX=1;exitY=0.5;exitDx=0;exitDy=0;entryX=0;entryY=0.5;entryDx=0;entryDy=0;fontSize=13;" edge="1" parent="1" source="0U5PHvUe9skKoDq-eCE6-4" target="0U5PHvUe9skKoDq-eCE6-62">
          <mxGeometry relative="1" as="geometry" />
        </mxCell>
        <mxCell id="0U5PHvUe9skKoDq-eCE6-66" style="edgeStyle=orthogonalEdgeStyle;rounded=0;orthogonalLoop=1;jettySize=auto;html=1;exitX=0.5;exitY=1;exitDx=0;exitDy=0;entryX=0.5;entryY=0;entryDx=0;entryDy=0;fontSize=13;" edge="1" parent="1" source="0U5PHvUe9skKoDq-eCE6-4" target="0U5PHvUe9skKoDq-eCE6-65">
          <mxGeometry relative="1" as="geometry" />
        </mxCell>
        <mxCell id="0U5PHvUe9skKoDq-eCE6-4" value="&lt;div style=&quot;color: rgb(56, 58, 66); background-color: rgb(245, 245, 245); font-family: Consolas, &amp;quot;Courier New&amp;quot;, monospace; font-weight: normal; line-height: 19px; white-space: pre;&quot;&gt;&lt;div&gt;&lt;span style=&quot;color: #4078f2;&quot;&gt;rkisp1_entities_register&lt;/span&gt;&lt;/div&gt;&lt;/div&gt;" style="text;whiteSpace=wrap;html=1;fontSize=13;" vertex="1" parent="1">
          <mxGeometry x="242.5" y="270" width="195" height="30" as="geometry" />
        </mxCell>
        <mxCell id="0U5PHvUe9skKoDq-eCE6-44" value="" style="edgeStyle=orthogonalEdgeStyle;rounded=0;orthogonalLoop=1;jettySize=auto;html=1;fontSize=13;" edge="1" parent="1" source="0U5PHvUe9skKoDq-eCE6-5" target="0U5PHvUe9skKoDq-eCE6-43">
          <mxGeometry relative="1" as="geometry" />
        </mxCell>
        <mxCell id="0U5PHvUe9skKoDq-eCE6-5" value="&lt;div style=&quot;color: rgb(56, 58, 66); background-color: rgb(245, 245, 245); font-family: Consolas, &amp;quot;Courier New&amp;quot;, monospace; font-weight: normal; line-height: 19px; white-space: pre;&quot;&gt;&lt;div&gt;&lt;span style=&quot;color: #4078f2;&quot;&gt;rkisp1_isp_register&lt;/span&gt;&lt;/div&gt;&lt;/div&gt;" style="text;whiteSpace=wrap;html=1;fontSize=13;" vertex="1" parent="1">
          <mxGeometry x="490" y="180" width="150" height="30" as="geometry" />
        </mxCell>
        <mxCell id="0U5PHvUe9skKoDq-eCE6-28" value="" style="edgeStyle=orthogonalEdgeStyle;rounded=0;orthogonalLoop=1;jettySize=auto;html=1;fontSize=13;" edge="1" parent="1" source="0U5PHvUe9skKoDq-eCE6-6" target="0U5PHvUe9skKoDq-eCE6-27">
          <mxGeometry relative="1" as="geometry" />
        </mxCell>
        <mxCell id="0U5PHvUe9skKoDq-eCE6-6" value="&lt;div style=&quot;color: rgb(56, 58, 66); background-color: rgb(245, 245, 245); font-family: Consolas, &amp;quot;Courier New&amp;quot;, monospace; font-weight: normal; line-height: 19px; white-space: pre;&quot;&gt;&lt;div&gt;&lt;span style=&quot;color: #4078f2;&quot;&gt;rkisp1_resizer_devs_register&lt;/span&gt;&lt;/div&gt;&lt;/div&gt;" style="text;whiteSpace=wrap;html=1;fontSize=13;" vertex="1" parent="1">
          <mxGeometry x="490" y="250" width="230" height="30" as="geometry" />
        </mxCell>
        <mxCell id="0U5PHvUe9skKoDq-eCE6-33" style="edgeStyle=orthogonalEdgeStyle;rounded=0;orthogonalLoop=1;jettySize=auto;html=1;exitX=1;exitY=0.5;exitDx=0;exitDy=0;fontSize=13;" edge="1" parent="1" source="0U5PHvUe9skKoDq-eCE6-7" target="0U5PHvUe9skKoDq-eCE6-32">
          <mxGeometry relative="1" as="geometry" />
        </mxCell>
        <mxCell id="0U5PHvUe9skKoDq-eCE6-36" style="edgeStyle=orthogonalEdgeStyle;rounded=0;orthogonalLoop=1;jettySize=auto;html=1;exitX=1;exitY=0.5;exitDx=0;exitDy=0;entryX=0;entryY=0.5;entryDx=0;entryDy=0;fontSize=13;" edge="1" parent="1" source="0U5PHvUe9skKoDq-eCE6-7" target="0U5PHvUe9skKoDq-eCE6-35">
          <mxGeometry relative="1" as="geometry" />
        </mxCell>
        <mxCell id="0U5PHvUe9skKoDq-eCE6-7" value="&lt;div style=&quot;color: rgb(56, 58, 66); background-color: rgb(245, 245, 245); font-family: Consolas, &amp;quot;Courier New&amp;quot;, monospace; font-weight: normal; line-height: 19px; white-space: pre;&quot;&gt;&lt;div&gt;&lt;span style=&quot;color: #4078f2;&quot;&gt;rkisp1_capture_devs_register&lt;/span&gt;&lt;/div&gt;&lt;/div&gt;" style="text;whiteSpace=wrap;html=1;fontSize=13;" vertex="1" parent="1">
          <mxGeometry x="490" y="320" width="230" height="30" as="geometry" />
        </mxCell>
        <mxCell id="0U5PHvUe9skKoDq-eCE6-46" value="" style="edgeStyle=orthogonalEdgeStyle;rounded=0;orthogonalLoop=1;jettySize=auto;html=1;fontSize=13;" edge="1" parent="1" source="0U5PHvUe9skKoDq-eCE6-8" target="0U5PHvUe9skKoDq-eCE6-45">
          <mxGeometry relative="1" as="geometry" />
        </mxCell>
        <mxCell id="0U5PHvUe9skKoDq-eCE6-8" value="&lt;div style=&quot;color: rgb(56, 58, 66); background-color: rgb(245, 245, 245); font-family: Consolas, &amp;quot;Courier New&amp;quot;, monospace; font-weight: normal; line-height: 19px; white-space: pre;&quot;&gt;&lt;div&gt;&lt;span style=&quot;color: #4078f2;&quot;&gt;rkisp1_stats_register&lt;/span&gt;&lt;/div&gt;&lt;/div&gt;" style="text;whiteSpace=wrap;html=1;fontSize=13;" vertex="1" parent="1">
          <mxGeometry x="490" y="380" width="175" height="30" as="geometry" />
        </mxCell>
        <mxCell id="0U5PHvUe9skKoDq-eCE6-49" value="" style="edgeStyle=orthogonalEdgeStyle;rounded=0;orthogonalLoop=1;jettySize=auto;html=1;fontSize=13;" edge="1" parent="1" source="0U5PHvUe9skKoDq-eCE6-9" target="0U5PHvUe9skKoDq-eCE6-47">
          <mxGeometry relative="1" as="geometry" />
        </mxCell>
        <mxCell id="0U5PHvUe9skKoDq-eCE6-9" value="&lt;div style=&quot;color: rgb(56, 58, 66); background-color: rgb(245, 245, 245); font-family: Consolas, &amp;quot;Courier New&amp;quot;, monospace; font-weight: normal; line-height: 19px; white-space: pre;&quot;&gt;&lt;div&gt;&lt;span style=&quot;color: #4078f2;&quot;&gt;rkisp1_params_register&lt;/span&gt;&lt;/div&gt;&lt;/div&gt;" style="text;whiteSpace=wrap;html=1;fontSize=13;" vertex="1" parent="1">
          <mxGeometry x="490" y="430" width="175" height="30" as="geometry" />
        </mxCell>
        <mxCell id="0U5PHvUe9skKoDq-eCE6-51" value="" style="edgeStyle=orthogonalEdgeStyle;rounded=0;orthogonalLoop=1;jettySize=auto;html=1;fontSize=13;" edge="1" parent="1" source="0U5PHvUe9skKoDq-eCE6-11" target="0U5PHvUe9skKoDq-eCE6-50">
          <mxGeometry relative="1" as="geometry" />
        </mxCell>
        <mxCell id="0U5PHvUe9skKoDq-eCE6-11" value="&lt;div style=&quot;color: rgb(56, 58, 66); background-color: rgb(245, 245, 245); font-family: Consolas, &amp;quot;Courier New&amp;quot;, monospace; font-weight: normal; line-height: 19px; white-space: pre;&quot;&gt;&lt;div&gt;&lt;span style=&quot;color: #4078f2;&quot;&gt;rkisp1_csi_register&lt;/span&gt;&lt;/div&gt;&lt;/div&gt;" style="text;whiteSpace=wrap;html=1;fontSize=13;" vertex="1" parent="1">
          <mxGeometry x="490" y="480" width="155" height="30" as="geometry" />
        </mxCell>
        <mxCell id="0U5PHvUe9skKoDq-eCE6-12" value="&lt;font style=&quot;color: rgb(153, 153, 153);&quot;&gt;rkisp1-dev.c&lt;/font&gt;" style="text;html=1;align=center;verticalAlign=middle;resizable=0;points=[];autosize=1;strokeColor=none;fillColor=none;fontSize=13;" vertex="1" parent="1">
          <mxGeometry x="190" y="20" width="90" height="30" as="geometry" />
        </mxCell>
        <mxCell id="0U5PHvUe9skKoDq-eCE6-25" value="&lt;font style=&quot;color: rgb(153, 153, 153);&quot;&gt;rkisp1-isp.c&lt;/font&gt;" style="text;html=1;align=center;verticalAlign=middle;resizable=0;points=[];autosize=1;strokeColor=none;fillColor=none;fontSize=11;" vertex="1" parent="1">
          <mxGeometry x="665" y="150" width="80" height="30" as="geometry" />
        </mxCell>
        <mxCell id="0U5PHvUe9skKoDq-eCE6-31" style="edgeStyle=orthogonalEdgeStyle;rounded=0;orthogonalLoop=1;jettySize=auto;html=1;exitX=1;exitY=0.5;exitDx=0;exitDy=0;entryX=0;entryY=0.5;entryDx=0;entryDy=0;fontSize=13;" edge="1" parent="1" source="0U5PHvUe9skKoDq-eCE6-27" target="0U5PHvUe9skKoDq-eCE6-30">
          <mxGeometry relative="1" as="geometry" />
        </mxCell>
        <mxCell id="0U5PHvUe9skKoDq-eCE6-27" value="&lt;div style=&quot;color: rgb(56, 58, 66); background-color: rgb(245, 245, 245); font-family: Consolas, &amp;quot;Courier New&amp;quot;, monospace; font-weight: normal; line-height: 19px; white-space: pre;&quot;&gt;&lt;div&gt;&lt;span style=&quot;color: #4078f2;&quot;&gt;rkisp1_rsz_register&lt;/span&gt;&lt;/div&gt;&lt;/div&gt;" style="text;whiteSpace=wrap;html=1;fontSize=13;" vertex="1" parent="1">
          <mxGeometry x="750" y="250" width="160" height="30" as="geometry" />
        </mxCell>
        <mxCell id="0U5PHvUe9skKoDq-eCE6-29" value="&lt;font style=&quot;color: rgb(153, 153, 153);&quot;&gt;rkisp1-resizer.c&lt;/font&gt;" style="text;html=1;align=center;verticalAlign=middle;resizable=0;points=[];autosize=1;strokeColor=none;fillColor=none;fontSize=11;" vertex="1" parent="1">
          <mxGeometry x="740" y="230" width="100" height="30" as="geometry" />
        </mxCell>
        <mxCell id="0U5PHvUe9skKoDq-eCE6-30" value="&lt;div style=&quot;color: rgb(56, 58, 66); background-color: rgb(245, 245, 245); font-family: Consolas, &amp;quot;Courier New&amp;quot;, monospace; font-weight: normal; line-height: 19px; white-space: pre;&quot;&gt;&lt;span style=&quot;color: rgb(64, 120, 242);&quot;&gt;v4l2_device_register_subdev&lt;/span&gt;&lt;/div&gt;" style="text;whiteSpace=wrap;html=1;fontSize=13;" vertex="1" parent="1">
          <mxGeometry x="950" y="250" width="210" height="30" as="geometry" />
        </mxCell>
        <mxCell id="0U5PHvUe9skKoDq-eCE6-32" value="&lt;div style=&quot;color: rgb(56, 58, 66); background-color: rgb(245, 245, 245); font-family: Consolas, &amp;quot;Courier New&amp;quot;, monospace; font-weight: normal; line-height: 19px; white-space: pre;&quot;&gt;&lt;div&gt;&lt;span style=&quot;color: #4078f2;&quot;&gt;rkisp1_capture_init&lt;/span&gt;&lt;/div&gt;&lt;/div&gt;" style="text;whiteSpace=wrap;html=1;fontSize=13;" vertex="1" parent="1">
          <mxGeometry x="770" y="300" width="150" height="30" as="geometry" />
        </mxCell>
        <mxCell id="0U5PHvUe9skKoDq-eCE6-34" value="&lt;font style=&quot;color: rgb(153, 153, 153);&quot;&gt;rkisp1-capture.c&lt;/font&gt;" style="text;html=1;align=center;verticalAlign=middle;resizable=0;points=[];autosize=1;strokeColor=none;fillColor=none;fontSize=11;" vertex="1" parent="1">
          <mxGeometry x="740" y="280" width="100" height="30" as="geometry" />
        </mxCell>
        <mxCell id="0U5PHvUe9skKoDq-eCE6-38" style="edgeStyle=orthogonalEdgeStyle;rounded=0;orthogonalLoop=1;jettySize=auto;html=1;exitX=1;exitY=0.5;exitDx=0;exitDy=0;entryX=0;entryY=0.5;entryDx=0;entryDy=0;fontSize=13;" edge="1" parent="1" source="0U5PHvUe9skKoDq-eCE6-35" target="0U5PHvUe9skKoDq-eCE6-37">
          <mxGeometry relative="1" as="geometry" />
        </mxCell>
        <mxCell id="0U5PHvUe9skKoDq-eCE6-40" style="edgeStyle=orthogonalEdgeStyle;rounded=0;orthogonalLoop=1;jettySize=auto;html=1;exitX=1;exitY=0.5;exitDx=0;exitDy=0;entryX=0;entryY=0.5;entryDx=0;entryDy=0;fontSize=13;" edge="1" parent="1" source="0U5PHvUe9skKoDq-eCE6-35" target="0U5PHvUe9skKoDq-eCE6-39">
          <mxGeometry relative="1" as="geometry" />
        </mxCell>
        <mxCell id="0U5PHvUe9skKoDq-eCE6-35" value="&lt;div style=&quot;color: rgb(56, 58, 66); background-color: rgb(245, 245, 245); font-family: Consolas, &amp;quot;Courier New&amp;quot;, monospace; font-weight: normal; line-height: 19px; white-space: pre;&quot;&gt;&lt;div&gt;&lt;span style=&quot;color: #4078f2;&quot;&gt;rkisp1_register_capture&lt;/span&gt;&lt;/div&gt;&lt;/div&gt;" style="text;whiteSpace=wrap;html=1;fontSize=13;" vertex="1" parent="1">
          <mxGeometry x="770" y="340" width="180" height="30" as="geometry" />
        </mxCell>
        <mxCell id="0U5PHvUe9skKoDq-eCE6-37" value="&lt;div style=&quot;color: rgb(56, 58, 66); background-color: rgb(245, 245, 245); font-family: Consolas, &amp;quot;Courier New&amp;quot;, monospace; font-weight: normal; line-height: 19px; white-space: pre;&quot;&gt;&lt;div&gt;&lt;span style=&quot;color: #4078f2;&quot;&gt;video_register_device&lt;/span&gt;&lt;/div&gt;&lt;/div&gt;" style="text;whiteSpace=wrap;html=1;fontSize=13;" vertex="1" parent="1">
          <mxGeometry x="991" y="370" width="169" height="30" as="geometry" />
        </mxCell>
        <mxCell id="0U5PHvUe9skKoDq-eCE6-39" value="&lt;div style=&quot;color: rgb(56, 58, 66); background-color: rgb(245, 245, 245); font-family: Consolas, &amp;quot;Courier New&amp;quot;, monospace; font-weight: normal; line-height: 19px; white-space: pre;&quot;&gt;&lt;div&gt;&lt;span style=&quot;color: #4078f2;&quot;&gt;media_entity_pads_init&lt;/span&gt;&lt;/div&gt;&lt;/div&gt;" style="text;whiteSpace=wrap;html=1;fontSize=13;" vertex="1" parent="1">
          <mxGeometry x="991" y="320" width="179" height="30" as="geometry" />
        </mxCell>
        <mxCell id="0U5PHvUe9skKoDq-eCE6-43" value="&lt;div style=&quot;background-color: rgb(245, 245, 245); font-family: Consolas, &amp;quot;Courier New&amp;quot;, monospace; font-weight: normal; line-height: 19px; white-space: pre; color: rgb(56, 58, 66);&quot;&gt;&lt;font color=&quot;#4078f2&quot;&gt;v4l2_device_register_subdev&lt;/font&gt;&lt;/div&gt;" style="text;whiteSpace=wrap;html=1;fontSize=13;" vertex="1" parent="1">
          <mxGeometry x="670" y="180" width="220" height="30" as="geometry" />
        </mxCell>
        <mxCell id="0U5PHvUe9skKoDq-eCE6-45" value="&lt;div style=&quot;color: rgb(56, 58, 66); background-color: rgb(245, 245, 245); font-family: Consolas, &amp;quot;Courier New&amp;quot;, monospace; font-weight: normal; line-height: 19px; white-space: pre;&quot;&gt;&lt;div&gt;&lt;span style=&quot;color: #4078f2;&quot;&gt;video_register_device&lt;/span&gt;&lt;/div&gt;&lt;/div&gt;" style="text;whiteSpace=wrap;html=1;fontSize=13;" vertex="1" parent="1">
          <mxGeometry x="695.5" y="380" width="169" height="30" as="geometry" />
        </mxCell>
        <mxCell id="0U5PHvUe9skKoDq-eCE6-47" value="&lt;div style=&quot;color: rgb(56, 58, 66); background-color: rgb(245, 245, 245); font-family: Consolas, &amp;quot;Courier New&amp;quot;, monospace; font-weight: normal; line-height: 19px; white-space: pre;&quot;&gt;&lt;div&gt;&lt;span style=&quot;color: #4078f2;&quot;&gt;video_register_device&lt;/span&gt;&lt;/div&gt;&lt;/div&gt;" style="text;whiteSpace=wrap;html=1;fontSize=13;" vertex="1" parent="1">
          <mxGeometry x="695.5" y="430" width="174.5" height="30" as="geometry" />
        </mxCell>
        <mxCell id="0U5PHvUe9skKoDq-eCE6-50" value="&lt;div style=&quot;color: rgb(56, 58, 66); background-color: rgb(245, 245, 245); font-family: Consolas, &amp;quot;Courier New&amp;quot;, monospace; font-weight: normal; line-height: 19px; white-space: pre;&quot;&gt;&lt;span style=&quot;color: rgb(64, 120, 242);&quot;&gt;v4l2_device_register_subdev&lt;/span&gt;&lt;/div&gt;" style="text;whiteSpace=wrap;html=1;fontSize=13;" vertex="1" parent="1">
          <mxGeometry x="680" y="480" width="210" height="30" as="geometry" />
        </mxCell>
        <mxCell id="0U5PHvUe9skKoDq-eCE6-52" value="&lt;font style=&quot;color: rgb(153, 153, 153);&quot;&gt;rkisp1-csi.c&lt;/font&gt;" style="text;html=1;align=center;verticalAlign=middle;resizable=0;points=[];autosize=1;strokeColor=none;fillColor=none;fontSize=11;" vertex="1" parent="1">
          <mxGeometry x="685" y="460" width="80" height="30" as="geometry" />
        </mxCell>
        <mxCell id="0U5PHvUe9skKoDq-eCE6-53" value="&lt;font style=&quot;color: rgb(153, 153, 153);&quot;&gt;rkisp1-params.c&lt;/font&gt;" style="text;html=1;align=center;verticalAlign=middle;resizable=0;points=[];autosize=1;strokeColor=none;fillColor=none;fontSize=11;" vertex="1" parent="1">
          <mxGeometry x="690" y="410" width="100" height="30" as="geometry" />
        </mxCell>
        <mxCell id="0U5PHvUe9skKoDq-eCE6-54" value="&lt;font style=&quot;color: rgb(153, 153, 153);&quot;&gt;rkisp1-stats.c&lt;/font&gt;" style="text;html=1;align=center;verticalAlign=middle;resizable=0;points=[];autosize=1;strokeColor=none;fillColor=none;fontSize=11;" vertex="1" parent="1">
          <mxGeometry x="695" y="360" width="90" height="30" as="geometry" />
        </mxCell>
        <mxCell id="0U5PHvUe9skKoDq-eCE6-55" value="&lt;font style=&quot;color: rgb(255, 0, 0);&quot;&gt;subdev&lt;/font&gt;" style="text;html=1;align=center;verticalAlign=middle;resizable=0;points=[];autosize=1;strokeColor=none;fillColor=none;fontSize=11;" vertex="1" parent="1">
          <mxGeometry x="480" y="160" width="60" height="30" as="geometry" />
        </mxCell>
        <mxCell id="0U5PHvUe9skKoDq-eCE6-56" value="&lt;span style=&quot;color: rgb(255, 0, 0); font-family: Helvetica; font-style: normal; font-variant-ligatures: normal; font-variant-caps: normal; font-weight: 400; letter-spacing: normal; orphans: 2; text-align: center; text-indent: 0px; text-transform: none; widows: 2; word-spacing: 0px; -webkit-text-stroke-width: 0px; white-space: nowrap; background-color: rgb(251, 251, 251); text-decoration-thickness: initial; text-decoration-style: initial; text-decoration-color: initial; float: none; display: inline !important;&quot;&gt;subdev&lt;/span&gt;" style="text;whiteSpace=wrap;html=1;fontSize=11;" vertex="1" parent="1">
          <mxGeometry x="490" y="230" width="50" height="30" as="geometry" />
        </mxCell>
        <mxCell id="0U5PHvUe9skKoDq-eCE6-57" value="&lt;span style=&quot;color: rgb(255, 0, 0); font-family: Helvetica; font-style: normal; font-variant-ligatures: normal; font-variant-caps: normal; font-weight: 400; letter-spacing: normal; orphans: 2; text-align: center; text-indent: 0px; text-transform: none; widows: 2; word-spacing: 0px; -webkit-text-stroke-width: 0px; white-space: nowrap; background-color: rgb(251, 251, 251); text-decoration-thickness: initial; text-decoration-style: initial; text-decoration-color: initial; float: none; display: inline !important;&quot;&gt;video device&lt;/span&gt;" style="text;whiteSpace=wrap;html=1;fontSize=11;" vertex="1" parent="1">
          <mxGeometry x="490" y="300" width="80" height="30" as="geometry" />
        </mxCell>
        <mxCell id="0U5PHvUe9skKoDq-eCE6-59" value="&lt;span style=&quot;color: rgb(255, 0, 0); font-family: Helvetica; font-style: normal; font-variant-ligatures: normal; font-variant-caps: normal; font-weight: 400; letter-spacing: normal; orphans: 2; text-align: center; text-indent: 0px; text-transform: none; widows: 2; word-spacing: 0px; -webkit-text-stroke-width: 0px; white-space: nowrap; background-color: rgb(251, 251, 251); text-decoration-thickness: initial; text-decoration-style: initial; text-decoration-color: initial; float: none; display: inline !important;&quot;&gt;video device&lt;/span&gt;" style="text;whiteSpace=wrap;html=1;fontSize=11;" vertex="1" parent="1">
          <mxGeometry x="490" y="360" width="80" height="30" as="geometry" />
        </mxCell>
        <mxCell id="0U5PHvUe9skKoDq-eCE6-60" value="&lt;span style=&quot;color: rgb(255, 0, 0); font-family: Helvetica; font-style: normal; font-variant-ligatures: normal; font-variant-caps: normal; font-weight: 400; letter-spacing: normal; orphans: 2; text-align: center; text-indent: 0px; text-transform: none; widows: 2; word-spacing: 0px; -webkit-text-stroke-width: 0px; white-space: nowrap; background-color: rgb(251, 251, 251); text-decoration-thickness: initial; text-decoration-style: initial; text-decoration-color: initial; float: none; display: inline !important;&quot;&gt;video device&lt;/span&gt;" style="text;whiteSpace=wrap;html=1;fontSize=11;" vertex="1" parent="1">
          <mxGeometry x="490" y="410" width="80" height="30" as="geometry" />
        </mxCell>
        <mxCell id="0U5PHvUe9skKoDq-eCE6-61" value="&lt;span style=&quot;color: rgb(255, 0, 0); font-family: Helvetica; font-style: normal; font-variant-ligatures: normal; font-variant-caps: normal; font-weight: 400; letter-spacing: normal; orphans: 2; text-align: center; text-indent: 0px; text-transform: none; widows: 2; word-spacing: 0px; -webkit-text-stroke-width: 0px; white-space: nowrap; background-color: rgb(251, 251, 251); text-decoration-thickness: initial; text-decoration-style: initial; text-decoration-color: initial; float: none; display: inline !important;&quot;&gt;subdev&lt;/span&gt;" style="text;whiteSpace=wrap;html=1;fontSize=11;" vertex="1" parent="1">
          <mxGeometry x="490" y="460" width="50" height="30" as="geometry" />
        </mxCell>
        <mxCell id="0U5PHvUe9skKoDq-eCE6-62" value="&lt;div style=&quot;color: rgb(56, 58, 66); background-color: rgb(245, 245, 245); font-family: Consolas, &amp;quot;Courier New&amp;quot;, monospace; font-weight: normal; line-height: 19px; white-space: pre;&quot;&gt;&lt;div&gt;&lt;span style=&quot;color: #4078f2;&quot;&gt;rkisp1_create_links&lt;/span&gt;&lt;/div&gt;&lt;/div&gt;" style="text;whiteSpace=wrap;html=1;fontSize=13;" vertex="1" parent="1">
          <mxGeometry x="488.75" y="530" width="152.5" height="30" as="geometry" />
        </mxCell>
        <mxCell id="0U5PHvUe9skKoDq-eCE6-68" style="edgeStyle=orthogonalEdgeStyle;rounded=0;orthogonalLoop=1;jettySize=auto;html=1;exitX=1;exitY=0.5;exitDx=0;exitDy=0;entryX=0;entryY=0.5;entryDx=0;entryDy=0;fontSize=13;" edge="1" parent="1" source="0U5PHvUe9skKoDq-eCE6-65" target="0U5PHvUe9skKoDq-eCE6-67">
          <mxGeometry relative="1" as="geometry" />
        </mxCell>
        <mxCell id="0U5PHvUe9skKoDq-eCE6-70" style="edgeStyle=orthogonalEdgeStyle;rounded=0;orthogonalLoop=1;jettySize=auto;html=1;exitX=1;exitY=0.5;exitDx=0;exitDy=0;entryX=0;entryY=0.5;entryDx=0;entryDy=0;fontSize=13;" edge="1" parent="1" source="0U5PHvUe9skKoDq-eCE6-65" target="0U5PHvUe9skKoDq-eCE6-69">
          <mxGeometry relative="1" as="geometry" />
        </mxCell>
        <mxCell id="0U5PHvUe9skKoDq-eCE6-76" style="edgeStyle=orthogonalEdgeStyle;rounded=0;orthogonalLoop=1;jettySize=auto;html=1;exitX=1;exitY=0.5;exitDx=0;exitDy=0;entryX=0;entryY=0.5;entryDx=0;entryDy=0;" edge="1" parent="1" source="0U5PHvUe9skKoDq-eCE6-65" target="0U5PHvUe9skKoDq-eCE6-75">
          <mxGeometry relative="1" as="geometry" />
        </mxCell>
        <mxCell id="0U5PHvUe9skKoDq-eCE6-65" value="&lt;div style=&quot;color: rgb(56, 58, 66); background-color: rgb(245, 245, 245); font-family: Consolas, &amp;quot;Courier New&amp;quot;, monospace; font-weight: normal; line-height: 19px; white-space: pre;&quot;&gt;&lt;div&gt;&lt;span style=&quot;color: #4078f2;&quot;&gt;rkisp1_subdev_notifier_register&lt;/span&gt;&lt;/div&gt;&lt;/div&gt;" style="text;whiteSpace=wrap;html=1;fontSize=13;" vertex="1" parent="1">
          <mxGeometry x="227" y="722.75" width="226.25" height="35.5" as="geometry" />
        </mxCell>
        <mxCell id="0U5PHvUe9skKoDq-eCE6-67" value="&lt;div style=&quot;color: rgb(56, 58, 66); background-color: rgb(245, 245, 245); font-family: Consolas, &amp;quot;Courier New&amp;quot;, monospace; font-weight: normal; line-height: 19px; white-space: pre;&quot;&gt;&lt;div&gt;&lt;span style=&quot;color: #4078f2;&quot;&gt;v4l2_async_nf_init&lt;/span&gt;&lt;/div&gt;&lt;/div&gt;" style="text;whiteSpace=wrap;html=1;fontSize=13;" vertex="1" parent="1">
          <mxGeometry x="515.13" y="670" width="134.87" height="30" as="geometry" />
        </mxCell>
        <mxCell id="0U5PHvUe9skKoDq-eCE6-81" style="edgeStyle=orthogonalEdgeStyle;rounded=0;orthogonalLoop=1;jettySize=auto;html=1;exitX=1;exitY=0.5;exitDx=0;exitDy=0;entryX=0;entryY=0.5;entryDx=0;entryDy=0;" edge="1" parent="1" source="0U5PHvUe9skKoDq-eCE6-69" target="0U5PHvUe9skKoDq-eCE6-79">
          <mxGeometry relative="1" as="geometry" />
        </mxCell>
        <mxCell id="0U5PHvUe9skKoDq-eCE6-82" style="edgeStyle=orthogonalEdgeStyle;rounded=0;orthogonalLoop=1;jettySize=auto;html=1;exitX=1;exitY=0.5;exitDx=0;exitDy=0;entryX=0;entryY=0.5;entryDx=0;entryDy=0;" edge="1" parent="1" source="0U5PHvUe9skKoDq-eCE6-69" target="0U5PHvUe9skKoDq-eCE6-80">
          <mxGeometry relative="1" as="geometry" />
        </mxCell>
        <mxCell id="0U5PHvUe9skKoDq-eCE6-69" value="&lt;div style=&quot;color: rgb(56, 58, 66); background-color: rgb(245, 245, 245); font-family: Consolas, &amp;quot;Courier New&amp;quot;, monospace; font-weight: normal; line-height: 19px; white-space: pre;&quot;&gt;&lt;div&gt;&lt;span style=&quot;color: #4078f2;&quot;&gt;v4l2_async_nf_register&lt;/span&gt;&lt;/div&gt;&lt;/div&gt;" style="text;whiteSpace=wrap;html=1;fontSize=13;" vertex="1" parent="1">
          <mxGeometry x="515.1299999999999" y="795.5" width="175" height="30" as="geometry" />
        </mxCell>
        <mxCell id="0U5PHvUe9skKoDq-eCE6-71" value="&lt;div style=&quot;color: rgb(56, 58, 66); background-color: rgb(245, 245, 245); font-family: Consolas, &amp;quot;Courier New&amp;quot;, monospace; font-weight: normal; line-height: 19px; white-space: pre;&quot;&gt;&lt;div&gt;&lt;span style=&quot;color: #383a42;&quot;&gt;&amp;nbsp; &amp;nbsp; &amp;nbsp; &amp;nbsp; &lt;/span&gt;&lt;span style=&quot;color: #c18401;&quot;&gt;isp0&lt;/span&gt;&lt;span style=&quot;color: #383a42;&quot;&gt;: &lt;/span&gt;&lt;span style=&quot;color: #4078f2;&quot;&gt;isp0@ff910000&lt;/span&gt;&lt;span style=&quot;color: #383a42;&quot;&gt; {&lt;/span&gt;&lt;/div&gt;&lt;div&gt;&lt;span style=&quot;color: #383a42;&quot;&gt;&amp;nbsp; &amp;nbsp; &amp;nbsp; &amp;nbsp; &amp;nbsp; &amp;nbsp; &amp;nbsp; &amp;nbsp; compatible = &lt;/span&gt;&lt;span style=&quot;color: #50a14f;&quot;&gt;&quot;rockchip,rk3399-cif-isp&quot;&lt;/span&gt;&lt;span style=&quot;color: #383a42;&quot;&gt;;&lt;/span&gt;&lt;/div&gt;&lt;div&gt;&lt;span style=&quot;color: #383a42;&quot;&gt;&amp;nbsp; &amp;nbsp; &amp;nbsp; &amp;nbsp; &amp;nbsp; &amp;nbsp; &amp;nbsp; &amp;nbsp; reg = &amp;lt;&lt;/span&gt;&lt;span style=&quot;color: #986801;&quot;&gt;0x0&lt;/span&gt;&lt;span style=&quot;color: #383a42;&quot;&gt; &lt;/span&gt;&lt;span style=&quot;color: #986801;&quot;&gt;0xff910000&lt;/span&gt;&lt;span style=&quot;color: #383a42;&quot;&gt; &lt;/span&gt;&lt;span style=&quot;color: #986801;&quot;&gt;0x0&lt;/span&gt;&lt;span style=&quot;color: #383a42;&quot;&gt; &lt;/span&gt;&lt;span style=&quot;color: #986801;&quot;&gt;0x4000&lt;/span&gt;&lt;span style=&quot;color: #383a42;&quot;&gt;&amp;gt;;&lt;/span&gt;&lt;/div&gt;&lt;div&gt;&lt;span style=&quot;color: #383a42;&quot;&gt;&amp;nbsp; &amp;nbsp; &amp;nbsp; &amp;nbsp; &amp;nbsp; &amp;nbsp; &amp;nbsp; &amp;nbsp; interrupts = &amp;lt;&lt;/span&gt;&lt;span style=&quot;color: #986801;&quot;&gt;GIC_SPI&lt;/span&gt;&lt;span style=&quot;color: #383a42;&quot;&gt; &lt;/span&gt;&lt;span style=&quot;color: #986801;&quot;&gt;43&lt;/span&gt;&lt;span style=&quot;color: #383a42;&quot;&gt; &lt;/span&gt;&lt;span style=&quot;color: #986801;&quot;&gt;IRQ_TYPE_LEVEL_HIGH&lt;/span&gt;&lt;span style=&quot;color: #383a42;&quot;&gt; &lt;/span&gt;&lt;span style=&quot;color: #986801;&quot;&gt;0&lt;/span&gt;&lt;span style=&quot;color: #383a42;&quot;&gt;&amp;gt;;&lt;/span&gt;&lt;/div&gt;&lt;div&gt;&lt;span style=&quot;color: #383a42;&quot;&gt;&amp;nbsp; &amp;nbsp; &amp;nbsp; &amp;nbsp; &amp;nbsp; &amp;nbsp; &amp;nbsp; &amp;nbsp; clocks = &amp;lt;&lt;/span&gt;&lt;span style=&quot;color: #e45649;&quot;&gt;&amp;amp;cru&lt;/span&gt;&lt;span style=&quot;color: #383a42;&quot;&gt; &lt;/span&gt;&lt;span style=&quot;color: #986801;&quot;&gt;SCLK_ISP0&lt;/span&gt;&lt;span style=&quot;color: #383a42;&quot;&gt;&amp;gt;,&lt;/span&gt;&lt;/div&gt;&lt;div&gt;&lt;span style=&quot;color: #383a42;&quot;&gt;&amp;nbsp; &amp;nbsp; &amp;nbsp; &amp;nbsp; &amp;nbsp; &amp;nbsp; &amp;nbsp; &amp;nbsp; &amp;nbsp; &amp;nbsp; &amp;nbsp; &amp;nbsp; &amp;nbsp;&amp;lt;&lt;/span&gt;&lt;span style=&quot;color: #e45649;&quot;&gt;&amp;amp;cru&lt;/span&gt;&lt;span style=&quot;color: #383a42;&quot;&gt; &lt;/span&gt;&lt;span style=&quot;color: #986801;&quot;&gt;ACLK_ISP0_WRAPPER&lt;/span&gt;&lt;span style=&quot;color: #383a42;&quot;&gt;&amp;gt;,&lt;/span&gt;&lt;/div&gt;&lt;div&gt;&lt;span style=&quot;color: #383a42;&quot;&gt;&amp;nbsp; &amp;nbsp; &amp;nbsp; &amp;nbsp; &amp;nbsp; &amp;nbsp; &amp;nbsp; &amp;nbsp; &amp;nbsp; &amp;nbsp; &amp;nbsp; &amp;nbsp; &amp;nbsp;&amp;lt;&lt;/span&gt;&lt;span style=&quot;color: #e45649;&quot;&gt;&amp;amp;cru&lt;/span&gt;&lt;span style=&quot;color: #383a42;&quot;&gt; &lt;/span&gt;&lt;span style=&quot;color: #986801;&quot;&gt;HCLK_ISP0_WRAPPER&lt;/span&gt;&lt;span style=&quot;color: #383a42;&quot;&gt;&amp;gt;;&lt;/span&gt;&lt;/div&gt;&lt;div&gt;&lt;span style=&quot;color: #383a42;&quot;&gt;&amp;nbsp; &amp;nbsp; &amp;nbsp; &amp;nbsp; &amp;nbsp; &amp;nbsp; &amp;nbsp; &amp;nbsp; clock-names = &lt;/span&gt;&lt;span style=&quot;color: #50a14f;&quot;&gt;&quot;isp&quot;&lt;/span&gt;&lt;span style=&quot;color: #383a42;&quot;&gt;, &lt;/span&gt;&lt;span style=&quot;color: #50a14f;&quot;&gt;&quot;aclk&quot;&lt;/span&gt;&lt;span style=&quot;color: #383a42;&quot;&gt;, &lt;/span&gt;&lt;span style=&quot;color: #50a14f;&quot;&gt;&quot;hclk&quot;&lt;/span&gt;&lt;span style=&quot;color: #383a42;&quot;&gt;;&lt;/span&gt;&lt;/div&gt;&lt;div&gt;&lt;span style=&quot;color: #383a42;&quot;&gt;&amp;nbsp; &amp;nbsp; &amp;nbsp; &amp;nbsp; &amp;nbsp; &amp;nbsp; &amp;nbsp; &amp;nbsp; iommus = &amp;lt;&lt;/span&gt;&lt;span style=&quot;color: #e45649;&quot;&gt;&amp;amp;isp0_mmu&lt;/span&gt;&lt;span style=&quot;color: #383a42;&quot;&gt;&amp;gt;;&lt;/span&gt;&lt;/div&gt;&lt;div&gt;&lt;span style=&quot;color: #383a42;&quot;&gt;&amp;nbsp; &amp;nbsp; &amp;nbsp; &amp;nbsp; &amp;nbsp; &amp;nbsp; &amp;nbsp; &amp;nbsp; phys = &amp;lt;&lt;/span&gt;&lt;span style=&quot;color: #e45649;&quot;&gt;&amp;amp;mipi_dphy_rx0&lt;/span&gt;&lt;span style=&quot;color: #383a42;&quot;&gt;&amp;gt;;&lt;/span&gt;&lt;/div&gt;&lt;div&gt;&lt;span style=&quot;color: #383a42;&quot;&gt;&amp;nbsp; &amp;nbsp; &amp;nbsp; &amp;nbsp; &amp;nbsp; &amp;nbsp; &amp;nbsp; &amp;nbsp; phy-names = &lt;/span&gt;&lt;span style=&quot;color: #50a14f;&quot;&gt;&quot;dphy&quot;&lt;/span&gt;&lt;span style=&quot;color: #383a42;&quot;&gt;;&lt;/span&gt;&lt;/div&gt;&lt;div&gt;&lt;span style=&quot;color: #383a42;&quot;&gt;&amp;nbsp; &amp;nbsp; &amp;nbsp; &amp;nbsp; &amp;nbsp; &amp;nbsp; &amp;nbsp; &amp;nbsp; power-domains = &amp;lt;&lt;/span&gt;&lt;span style=&quot;color: #e45649;&quot;&gt;&amp;amp;power&lt;/span&gt;&lt;span style=&quot;color: #383a42;&quot;&gt; &lt;/span&gt;&lt;span style=&quot;color: #986801;&quot;&gt;RK3399_PD_ISP0&lt;/span&gt;&lt;span style=&quot;color: #383a42;&quot;&gt;&amp;gt;;&lt;/span&gt;&lt;/div&gt;&lt;div&gt;&lt;span style=&quot;color: #383a42;&quot;&gt;&amp;nbsp; &amp;nbsp; &amp;nbsp; &amp;nbsp; &amp;nbsp; &amp;nbsp; &amp;nbsp; &amp;nbsp; status = &lt;/span&gt;&lt;span style=&quot;color: #50a14f;&quot;&gt;&quot;disabled&quot;&lt;/span&gt;&lt;span style=&quot;color: #383a42;&quot;&gt;;&lt;/span&gt;&lt;/div&gt;&lt;br&gt;&lt;div&gt;&lt;span style=&quot;color: #383a42;&quot;&gt;&amp;nbsp; &amp;nbsp; &amp;nbsp; &amp;nbsp; &amp;nbsp; &amp;nbsp; &amp;nbsp; &amp;nbsp; &lt;/span&gt;&lt;span style=&quot;color: #4078f2;&quot;&gt;ports&lt;/span&gt;&lt;span style=&quot;color: #383a42;&quot;&gt; {&lt;/span&gt;&lt;/div&gt;&lt;div&gt;&lt;span style=&quot;color: #383a42;&quot;&gt;&amp;nbsp; &amp;nbsp; &amp;nbsp; &amp;nbsp; &amp;nbsp; &amp;nbsp; &amp;nbsp; &amp;nbsp; &amp;nbsp; &amp;nbsp; &amp;nbsp; &amp;nbsp; #address-cells = &amp;lt;&lt;/span&gt;&lt;span style=&quot;color: #986801;&quot;&gt;1&lt;/span&gt;&lt;span style=&quot;color: #383a42;&quot;&gt;&amp;gt;;&lt;/span&gt;&lt;/div&gt;&lt;div&gt;&lt;span style=&quot;color: #383a42;&quot;&gt;&amp;nbsp; &amp;nbsp; &amp;nbsp; &amp;nbsp; &amp;nbsp; &amp;nbsp; &amp;nbsp; &amp;nbsp; &amp;nbsp; &amp;nbsp; &amp;nbsp; &amp;nbsp; #size-cells = &amp;lt;&lt;/span&gt;&lt;span style=&quot;color: #986801;&quot;&gt;0&lt;/span&gt;&lt;span style=&quot;color: #383a42;&quot;&gt;&amp;gt;;&lt;/span&gt;&lt;/div&gt;&lt;br&gt;&lt;div&gt;&lt;span style=&quot;color: #383a42;&quot;&gt;&amp;nbsp; &amp;nbsp; &amp;nbsp; &amp;nbsp; &amp;nbsp; &amp;nbsp; &amp;nbsp; &amp;nbsp; &amp;nbsp; &amp;nbsp; &amp;nbsp; &amp;nbsp; &lt;/span&gt;&lt;span style=&quot;color: #4078f2;&quot;&gt;port@0&lt;/span&gt;&lt;span style=&quot;color: #383a42;&quot;&gt; {&lt;/span&gt;&lt;/div&gt;&lt;div&gt;&lt;span style=&quot;color: #383a42;&quot;&gt;&amp;nbsp; &amp;nbsp; &amp;nbsp; &amp;nbsp; &amp;nbsp; &amp;nbsp; &amp;nbsp; &amp;nbsp; &amp;nbsp; &amp;nbsp; &amp;nbsp; &amp;nbsp; &amp;nbsp; &amp;nbsp; &amp;nbsp; &amp;nbsp; reg = &amp;lt;&lt;/span&gt;&lt;span style=&quot;color: #986801;&quot;&gt;0&lt;/span&gt;&lt;span style=&quot;color: #383a42;&quot;&gt;&amp;gt;;&lt;/span&gt;&lt;/div&gt;&lt;div&gt;&lt;span style=&quot;color: #383a42;&quot;&gt;&amp;nbsp; &amp;nbsp; &amp;nbsp; &amp;nbsp; &amp;nbsp; &amp;nbsp; &amp;nbsp; &amp;nbsp; &amp;nbsp; &amp;nbsp; &amp;nbsp; &amp;nbsp; &amp;nbsp; &amp;nbsp; &amp;nbsp; &amp;nbsp; #address-cells = &amp;lt;&lt;/span&gt;&lt;span style=&quot;color: #986801;&quot;&gt;1&lt;/span&gt;&lt;span style=&quot;color: #383a42;&quot;&gt;&amp;gt;;&lt;/span&gt;&lt;/div&gt;&lt;div&gt;&lt;span style=&quot;color: #383a42;&quot;&gt;&amp;nbsp; &amp;nbsp; &amp;nbsp; &amp;nbsp; &amp;nbsp; &amp;nbsp; &amp;nbsp; &amp;nbsp; &amp;nbsp; &amp;nbsp; &amp;nbsp; &amp;nbsp; &amp;nbsp; &amp;nbsp; &amp;nbsp; &amp;nbsp; #size-cells = &amp;lt;&lt;/span&gt;&lt;span style=&quot;color: #986801;&quot;&gt;0&lt;/span&gt;&lt;span style=&quot;color: #383a42;&quot;&gt;&amp;gt;;&lt;/span&gt;&lt;/div&gt;&lt;div&gt;&lt;span style=&quot;color: #383a42;&quot;&gt;&amp;nbsp; &amp;nbsp; &amp;nbsp; &amp;nbsp; &amp;nbsp; &amp;nbsp; &amp;nbsp; &amp;nbsp; &amp;nbsp; &amp;nbsp; &amp;nbsp; &amp;nbsp; };&lt;/span&gt;&lt;/div&gt;&lt;div&gt;&lt;span style=&quot;color: #383a42;&quot;&gt;&amp;nbsp; &amp;nbsp; &amp;nbsp; &amp;nbsp; &amp;nbsp; &amp;nbsp; &amp;nbsp; &amp;nbsp; };&lt;/span&gt;&lt;/div&gt;&lt;div&gt;&lt;span style=&quot;color: #383a42;&quot;&gt;&amp;nbsp; &amp;nbsp; &amp;nbsp; &amp;nbsp; };&lt;/span&gt;&lt;/div&gt;&lt;/div&gt;" style="text;whiteSpace=wrap;html=1;fontSize=13;" vertex="1" parent="1">
          <mxGeometry x="-660" y="-70" width="410" height="480" as="geometry" />
        </mxCell>
        <mxCell id="0U5PHvUe9skKoDq-eCE6-72" value="&lt;div style=&quot;color: rgb(56, 58, 66); background-color: rgb(245, 245, 245); font-family: Consolas, &amp;quot;Courier New&amp;quot;, monospace; font-weight: normal; line-height: 19px; white-space: pre;&quot;&gt;&lt;div&gt;&lt;span style=&quot;color: #e45649;&quot;&gt;&amp;amp;isp0&lt;/span&gt;&lt;span style=&quot;color: #383a42;&quot;&gt; {&lt;/span&gt;&lt;/div&gt;&lt;div&gt;&lt;span style=&quot;color: #383a42;&quot;&gt;&amp;nbsp; &amp;nbsp; &amp;nbsp; &amp;nbsp; status = &lt;/span&gt;&lt;span style=&quot;color: #50a14f;&quot;&gt;&quot;okay&quot;&lt;/span&gt;&lt;span style=&quot;color: #383a42;&quot;&gt;;&lt;/span&gt;&lt;/div&gt;&lt;br&gt;&lt;div&gt;&lt;span style=&quot;color: #383a42;&quot;&gt;&amp;nbsp; &amp;nbsp; &amp;nbsp; &amp;nbsp; &lt;/span&gt;&lt;span style=&quot;color: #4078f2;&quot;&gt;ports&lt;/span&gt;&lt;span style=&quot;color: #383a42;&quot;&gt; {&lt;/span&gt;&lt;/div&gt;&lt;div&gt;&lt;span style=&quot;color: #383a42;&quot;&gt;&amp;nbsp; &amp;nbsp; &amp;nbsp; &amp;nbsp; &amp;nbsp; &amp;nbsp; &amp;nbsp; &amp;nbsp; &lt;/span&gt;&lt;span style=&quot;color: #4078f2;&quot;&gt;port@0&lt;/span&gt;&lt;span style=&quot;color: #383a42;&quot;&gt; {&lt;/span&gt;&lt;/div&gt;&lt;div&gt;&lt;span style=&quot;color: #383a42;&quot;&gt;&amp;nbsp; &amp;nbsp; &amp;nbsp; &amp;nbsp; &amp;nbsp; &amp;nbsp; &amp;nbsp; &amp;nbsp; &amp;nbsp; &amp;nbsp; &amp;nbsp; &amp;nbsp; &lt;/span&gt;&lt;span style=&quot;color: #c18401;&quot;&gt;mipi_in_wcam&lt;/span&gt;&lt;span style=&quot;color: #383a42;&quot;&gt;: &lt;/span&gt;&lt;span style=&quot;color: #4078f2;&quot;&gt;endpoint@0&lt;/span&gt;&lt;span style=&quot;color: #383a42;&quot;&gt; {&lt;/span&gt;&lt;/div&gt;&lt;div&gt;&lt;span style=&quot;color: #383a42;&quot;&gt;&amp;nbsp; &amp;nbsp; &amp;nbsp; &amp;nbsp; &amp;nbsp; &amp;nbsp; &amp;nbsp; &amp;nbsp; &amp;nbsp; &amp;nbsp; &amp;nbsp; &amp;nbsp; &amp;nbsp; &amp;nbsp; &amp;nbsp; &amp;nbsp; reg = &amp;lt;&lt;/span&gt;&lt;span style=&quot;color: #986801;&quot;&gt;0&lt;/span&gt;&lt;span style=&quot;color: #383a42;&quot;&gt;&amp;gt;;&lt;/span&gt;&lt;/div&gt;&lt;div&gt;&lt;span style=&quot;color: #383a42;&quot;&gt;&amp;nbsp; &amp;nbsp; &amp;nbsp; &amp;nbsp; &amp;nbsp; &amp;nbsp; &amp;nbsp; &amp;nbsp; &amp;nbsp; &amp;nbsp; &amp;nbsp; &amp;nbsp; &amp;nbsp; &amp;nbsp; &amp;nbsp; &amp;nbsp; remote-endpoint = &amp;lt;&lt;/span&gt;&lt;span style=&quot;color: #e45649;&quot;&gt;&amp;amp;wcam_out&lt;/span&gt;&lt;span style=&quot;color: #383a42;&quot;&gt;&amp;gt;;&lt;/span&gt;&lt;/div&gt;&lt;div&gt;&lt;span style=&quot;color: #383a42;&quot;&gt;&amp;nbsp; &amp;nbsp; &amp;nbsp; &amp;nbsp; &amp;nbsp; &amp;nbsp; &amp;nbsp; &amp;nbsp; &amp;nbsp; &amp;nbsp; &amp;nbsp; &amp;nbsp; &amp;nbsp; &amp;nbsp; &amp;nbsp; &amp;nbsp; data-lanes = &amp;lt;&lt;/span&gt;&lt;span style=&quot;color: #986801;&quot;&gt;1&lt;/span&gt;&lt;span style=&quot;color: #383a42;&quot;&gt; &lt;/span&gt;&lt;span style=&quot;color: #986801;&quot;&gt;2&lt;/span&gt;&lt;span style=&quot;color: #383a42;&quot;&gt;&amp;gt;;&lt;/span&gt;&lt;/div&gt;&lt;div&gt;&lt;span style=&quot;color: #383a42;&quot;&gt;&amp;nbsp; &amp;nbsp; &amp;nbsp; &amp;nbsp; &amp;nbsp; &amp;nbsp; &amp;nbsp; &amp;nbsp; &amp;nbsp; &amp;nbsp; &amp;nbsp; &amp;nbsp; };&lt;/span&gt;&lt;/div&gt;&lt;br&gt;&lt;div&gt;&lt;span style=&quot;color: #383a42;&quot;&gt;&amp;nbsp; &amp;nbsp; &amp;nbsp; &amp;nbsp; &amp;nbsp; &amp;nbsp; &amp;nbsp; &amp;nbsp; &amp;nbsp; &amp;nbsp; &amp;nbsp; &amp;nbsp; &lt;/span&gt;&lt;span style=&quot;color: #c18401;&quot;&gt;mipi_in_ucam&lt;/span&gt;&lt;span style=&quot;color: #383a42;&quot;&gt;: &lt;/span&gt;&lt;span style=&quot;color: #4078f2;&quot;&gt;endpoint@1&lt;/span&gt;&lt;span style=&quot;color: #383a42;&quot;&gt; {&lt;/span&gt;&lt;/div&gt;&lt;div&gt;&lt;span style=&quot;color: #383a42;&quot;&gt;&amp;nbsp; &amp;nbsp; &amp;nbsp; &amp;nbsp; &amp;nbsp; &amp;nbsp; &amp;nbsp; &amp;nbsp; &amp;nbsp; &amp;nbsp; &amp;nbsp; &amp;nbsp; &amp;nbsp; &amp;nbsp; &amp;nbsp; &amp;nbsp; reg = &amp;lt;&lt;/span&gt;&lt;span style=&quot;color: #986801;&quot;&gt;1&lt;/span&gt;&lt;span style=&quot;color: #383a42;&quot;&gt;&amp;gt;;&lt;/span&gt;&lt;/div&gt;&lt;div&gt;&lt;span style=&quot;color: #383a42;&quot;&gt;&amp;nbsp; &amp;nbsp; &amp;nbsp; &amp;nbsp; &amp;nbsp; &amp;nbsp; &amp;nbsp; &amp;nbsp; &amp;nbsp; &amp;nbsp; &amp;nbsp; &amp;nbsp; &amp;nbsp; &amp;nbsp; &amp;nbsp; &amp;nbsp; remote-endpoint = &amp;lt;&lt;/span&gt;&lt;span style=&quot;color: #e45649;&quot;&gt;&amp;amp;ucam_out&lt;/span&gt;&lt;span style=&quot;color: #383a42;&quot;&gt;&amp;gt;;&lt;/span&gt;&lt;/div&gt;&lt;div&gt;&lt;span style=&quot;color: #383a42;&quot;&gt;&amp;nbsp; &amp;nbsp; &amp;nbsp; &amp;nbsp; &amp;nbsp; &amp;nbsp; &amp;nbsp; &amp;nbsp; &amp;nbsp; &amp;nbsp; &amp;nbsp; &amp;nbsp; &amp;nbsp; &amp;nbsp; &amp;nbsp; &amp;nbsp; data-lanes = &amp;lt;&lt;/span&gt;&lt;span style=&quot;color: #986801;&quot;&gt;1&lt;/span&gt;&lt;span style=&quot;color: #383a42;&quot;&gt;&amp;gt;;&lt;/span&gt;&lt;/div&gt;&lt;div&gt;&lt;span style=&quot;color: #383a42;&quot;&gt;&amp;nbsp; &amp;nbsp; &amp;nbsp; &amp;nbsp; &amp;nbsp; &amp;nbsp; &amp;nbsp; &amp;nbsp; &amp;nbsp; &amp;nbsp; &amp;nbsp; &amp;nbsp; };&lt;/span&gt;&lt;/div&gt;&lt;div&gt;&lt;span style=&quot;color: #383a42;&quot;&gt;&amp;nbsp; &amp;nbsp; &amp;nbsp; &amp;nbsp; &amp;nbsp; &amp;nbsp; &amp;nbsp; &amp;nbsp; };&lt;/span&gt;&lt;/div&gt;&lt;div&gt;&lt;span style=&quot;color: #383a42;&quot;&gt;&amp;nbsp; &amp;nbsp; &amp;nbsp; &amp;nbsp; };&lt;/span&gt;&lt;/div&gt;&lt;div&gt;&lt;span style=&quot;color: #383a42;&quot;&gt;};&lt;/span&gt;&lt;/div&gt;&lt;/div&gt;" style="text;whiteSpace=wrap;html=1;fontSize=13;" vertex="1" parent="1">
          <mxGeometry x="-660" y="447.75" width="390" height="380" as="geometry" />
        </mxCell>
        <mxCell id="0U5PHvUe9skKoDq-eCE6-73" value="rk3399.dtsi" style="text;html=1;align=center;verticalAlign=middle;resizable=0;points=[];autosize=1;strokeColor=none;fillColor=none;fontSize=13;" vertex="1" parent="1">
          <mxGeometry x="-725" y="-112" width="90" height="30" as="geometry" />
        </mxCell>
        <mxCell id="0U5PHvUe9skKoDq-eCE6-74" value="rk3399-gru-scarlet.dtsi" style="text;html=1;align=center;verticalAlign=middle;resizable=0;points=[];autosize=1;strokeColor=none;fillColor=none;fontSize=13;" vertex="1" parent="1">
          <mxGeometry x="-775" y="417.75" width="150" height="30" as="geometry" />
        </mxCell>
        <mxCell id="0U5PHvUe9skKoDq-eCE6-78" value="" style="edgeStyle=orthogonalEdgeStyle;rounded=0;orthogonalLoop=1;jettySize=auto;html=1;" edge="1" parent="1" source="0U5PHvUe9skKoDq-eCE6-75" target="0U5PHvUe9skKoDq-eCE6-77">
          <mxGeometry relative="1" as="geometry" />
        </mxCell>
        <mxCell id="0U5PHvUe9skKoDq-eCE6-75" value="&lt;div style=&quot;color: rgb(56, 58, 66); background-color: rgb(245, 245, 245); font-family: Consolas, &amp;quot;Courier New&amp;quot;, monospace; font-weight: normal; font-size: 14px; line-height: 19px; white-space: pre;&quot;&gt;&lt;span style=&quot;color: rgb(64, 120, 242); font-size: 13px;&quot;&gt;v4l2_async_nf_add_fwnode&lt;/span&gt;&lt;/div&gt;" style="text;whiteSpace=wrap;html=1;" vertex="1" parent="1">
          <mxGeometry x="515.1299999999999" y="725.5" width="180" height="30" as="geometry" />
        </mxCell>
        <mxCell id="0U5PHvUe9skKoDq-eCE6-77" value="&lt;div style=&quot;color: #383a42;background-color: #f5f5f5;font-family: Consolas, &#39;Courier New&#39;, monospace;font-weight: normal;font-size: 14px;line-height: 19px;white-space: pre;&quot;&gt;&lt;div&gt;&lt;span style=&quot;color: #4078f2;&quot;&gt;__v4l2_async_nf_add_connection&lt;/span&gt;&lt;/div&gt;&lt;/div&gt;" style="text;whiteSpace=wrap;html=1;" vertex="1" parent="1">
          <mxGeometry x="740.1299999999999" y="725.5" width="240" height="30" as="geometry" />
        </mxCell>
        <mxCell id="0U5PHvUe9skKoDq-eCE6-85" style="edgeStyle=orthogonalEdgeStyle;rounded=0;orthogonalLoop=1;jettySize=auto;html=1;exitX=1;exitY=0.5;exitDx=0;exitDy=0;entryX=0;entryY=0.5;entryDx=0;entryDy=0;" edge="1" parent="1" source="0U5PHvUe9skKoDq-eCE6-79" target="0U5PHvUe9skKoDq-eCE6-83">
          <mxGeometry relative="1" as="geometry" />
        </mxCell>
        <mxCell id="0U5PHvUe9skKoDq-eCE6-79" value="&lt;div style=&quot;color: #383a42;background-color: #f5f5f5;font-family: Consolas, &#39;Courier New&#39;, monospace;font-weight: normal;font-size: 14px;line-height: 19px;white-space: pre;&quot;&gt;&lt;div&gt;&lt;span style=&quot;color: #4078f2;&quot;&gt;v4l2_async_nf_try_all_subdevs&lt;/span&gt;&lt;/div&gt;&lt;/div&gt;" style="text;whiteSpace=wrap;html=1;" vertex="1" parent="1">
          <mxGeometry x="730.1299999999999" y="775.5" width="235" height="30" as="geometry" />
        </mxCell>
        <mxCell id="0U5PHvUe9skKoDq-eCE6-89" value="" style="edgeStyle=orthogonalEdgeStyle;rounded=0;orthogonalLoop=1;jettySize=auto;html=1;" edge="1" parent="1" source="0U5PHvUe9skKoDq-eCE6-80" target="0U5PHvUe9skKoDq-eCE6-88">
          <mxGeometry relative="1" as="geometry" />
        </mxCell>
        <mxCell id="0U5PHvUe9skKoDq-eCE6-80" value="&lt;div style=&quot;color: #383a42;background-color: #f5f5f5;font-family: Consolas, &#39;Courier New&#39;, monospace;font-weight: normal;font-size: 14px;line-height: 19px;white-space: pre;&quot;&gt;&lt;div&gt;&lt;span style=&quot;color: #4078f2;&quot;&gt;v4l2_async_nf_try_complete&lt;/span&gt;&lt;/div&gt;&lt;/div&gt;" style="text;whiteSpace=wrap;html=1;" vertex="1" parent="1">
          <mxGeometry x="730.1299999999999" y="815.5" width="205" height="30" as="geometry" />
        </mxCell>
        <mxCell id="0U5PHvUe9skKoDq-eCE6-87" value="" style="edgeStyle=orthogonalEdgeStyle;rounded=0;orthogonalLoop=1;jettySize=auto;html=1;" edge="1" parent="1" source="0U5PHvUe9skKoDq-eCE6-83" target="0U5PHvUe9skKoDq-eCE6-86">
          <mxGeometry relative="1" as="geometry" />
        </mxCell>
        <mxCell id="0U5PHvUe9skKoDq-eCE6-83" value="&lt;div style=&quot;color: #383a42;background-color: #f5f5f5;font-family: Consolas, &#39;Courier New&#39;, monospace;font-weight: normal;font-size: 14px;line-height: 19px;white-space: pre;&quot;&gt;&lt;div&gt;&lt;span style=&quot;color: #4078f2;&quot;&gt;v4l2_async_match_notify&lt;/span&gt;&lt;/div&gt;&lt;/div&gt;" style="text;whiteSpace=wrap;html=1;" vertex="1" parent="1">
          <mxGeometry x="1000.1299999999999" y="775.5" width="189" height="30" as="geometry" />
        </mxCell>
        <mxCell id="0U5PHvUe9skKoDq-eCE6-86" value="&lt;div style=&quot;color: #383a42;background-color: #f5f5f5;font-family: Consolas, &#39;Courier New&#39;, monospace;font-weight: normal;font-size: 14px;line-height: 19px;white-space: pre;&quot;&gt;&lt;div&gt;&lt;span style=&quot;color: #00afaf;&quot;&gt;n&lt;/span&gt;&lt;span style=&quot;color: #383a42;&quot;&gt;-&amp;gt;&lt;/span&gt;&lt;span style=&quot;color: #e45649;&quot;&gt;ops&lt;/span&gt;&lt;span style=&quot;color: #383a42;&quot;&gt;-&amp;gt;&lt;/span&gt;&lt;span style=&quot;color: #e45649;&quot;&gt;bound&lt;/span&gt;&lt;/div&gt;&lt;/div&gt;" style="text;whiteSpace=wrap;html=1;" vertex="1" parent="1">
          <mxGeometry x="1220.13" y="775.5" width="110" height="30" as="geometry" />
        </mxCell>
        <mxCell id="0U5PHvUe9skKoDq-eCE6-88" value="&lt;div style=&quot;color: #383a42;background-color: #f5f5f5;font-family: Consolas, &#39;Courier New&#39;, monospace;font-weight: normal;font-size: 14px;line-height: 19px;white-space: pre;&quot;&gt;&lt;div&gt;&lt;span style=&quot;color: #00afaf;&quot;&gt;n&lt;/span&gt;&lt;span style=&quot;color: #383a42;&quot;&gt;-&amp;gt;&lt;/span&gt;&lt;span style=&quot;color: #e45649;&quot;&gt;ops&lt;/span&gt;&lt;span style=&quot;color: #383a42;&quot;&gt;-&amp;gt;&lt;/span&gt;&lt;span style=&quot;color: #e45649;&quot;&gt;complete&lt;/span&gt;&lt;/div&gt;&lt;/div&gt;" style="text;whiteSpace=wrap;html=1;" vertex="1" parent="1">
          <mxGeometry x="965.1299999999999" y="815.5" width="135" height="30" as="geometry" />
        </mxCell>
        <mxCell id="0U5PHvUe9skKoDq-eCE6-90" value="&lt;font style=&quot;color: rgb(153, 153, 153);&quot;&gt;ov5695.c&lt;/font&gt;" style="text;html=1;align=center;verticalAlign=middle;resizable=0;points=[];autosize=1;strokeColor=none;fillColor=none;fontSize=13;" vertex="1" parent="1">
          <mxGeometry x="195" y="-170" width="80" height="30" as="geometry" />
        </mxCell>
        <mxCell id="0U5PHvUe9skKoDq-eCE6-91" value="&lt;div style=&quot;color: #383a42;background-color: #f5f5f5;font-family: Consolas, &#39;Courier New&#39;, monospace;font-weight: normal;font-size: 14px;line-height: 19px;white-space: pre;&quot;&gt;&lt;div&gt;&lt;span style=&quot;color: #4078f2;&quot;&gt;v4l2_async_register_subdev_sensor&lt;/span&gt;&lt;/div&gt;&lt;/div&gt;" style="text;whiteSpace=wrap;html=1;" vertex="1" parent="1">
          <mxGeometry x="269" y="-140" width="261" height="30" as="geometry" />
        </mxCell>
        <mxCell id="0U5PHvUe9skKoDq-eCE6-92" value="&lt;font style=&quot;color: rgb(255, 0, 0);&quot;&gt;subdev&lt;/font&gt;" style="text;html=1;align=center;verticalAlign=middle;resizable=0;points=[];autosize=1;strokeColor=none;fillColor=none;fontSize=11;" vertex="1" parent="1">
          <mxGeometry x="280" y="-160" width="60" height="30" as="geometry" />
        </mxCell>
      </root>
    </mxGraphModel>
  </diagram>
</mxfile>
